<?xml version="1.0" encoding="UTF-8" standalone="no"?>
<!DOCTYPE svg PUBLIC "-//W3C//DTD SVG 1.1//EN" "http://www.w3.org/Graphics/SVG/1.1/DTD/svg11.dtd">
<svg width="112px" height="30px" version="1.1" xmlns="http://www.w3.org/2000/svg" xmlns:xlink="http://www.w3.org/1999/xlink" xml:space="preserve" xmlns:serif="http://www.serif.com/" style="fill-rule:evenodd;clip-rule:evenodd;stroke-linejoin:round;stroke-miterlimit:2;">
    <g id="_3DS" serif:id="3DS">
        <g transform="matrix(2.73171,0,0,1.76471,-24.5854,-8.82353)">
            <path d="M50,13.5C50,8.809 47.54,5 44.509,5L14.491,5C11.46,5 9,8.809 9,13.5C9,18.191 11.46,22 14.491,22L44.509,22C47.54,22 50,18.191 50,13.5Z" style="fill:#fff;"/>
            <path d="M50,13.5C50,8.809 47.54,5 44.509,5L14.491,5C11.46,5 9,8.809 9,13.5C9,18.191 11.46,22 14.491,22L44.509,22C47.54,22 50,18.191 50,13.5ZM49.634,13.5C49.634,17.879 47.337,21.433 44.509,21.433L14.491,21.433C11.663,21.433 9.366,17.879 9.366,13.5C9.366,9.121 11.663,5.567 14.491,5.567L44.509,5.567C47.337,5.567 49.634,9.121 49.634,13.5Z" style="fill:#a1a2a2;"/>
        </g>
        <g id="logo-nintendo-3ds.svg" transform="matrix(1.2,0,0,1.2,56,15)">
            <g transform="matrix(1,0,0,1,-40,-10)">
                <g transform="matrix(1,0,0,1,1.25,-0.1)">
                    <path d="M41.9,13.8C41.9,13.9 41.8,14 41.7,14L38.2,14C38.1,14 38,13.9 38,13.8L38,11.3C38,11.2 38.1,11.1 38.2,11.1L41.7,11.1C41.8,11.1 41.9,11.2 41.9,11.3L41.9,13.8ZM41.7,10.3L38.1,10.3C37.6,10.3 37.2,10.7 37.2,11.2L37.2,13.7C37.2,14.2 37.6,14.6 38.1,14.6L41.7,14.6C42.2,14.6 42.6,14.2 42.6,13.7L42.6,11.2C42.6,10.7 42.2,10.3 41.7,10.3" style="fill:#a1a2a2;fill-rule:nonzero;"/>
                    <path d="M0.8,6.5L0.8,9.8L0,9.8L0,5.3L0.7,5.3L4,8.6L4,5.3L4.8,5.3L4.8,9.7L4.2,9.7L0.8,6.5Z" style="fill:#332d2b;fill-rule:nonzero;"/>
                    <path d="M9,6.5L9,9.8L8.2,9.8L8.2,5.3L8.9,5.3L12.2,8.5L12.2,5.3L13,5.3L13,9.7L12.4,9.7L9,6.5Z" style="fill:#332d2b;fill-rule:nonzero;"/>
                    <path d="M26,6.5L26,9.8L25.2,9.8L25.2,5.3L25.9,5.3L29.2,8.5L29.2,5.3L30,5.3L30,9.7L29.4,9.7L26,6.5Z" style="fill:#332d2b;fill-rule:nonzero;"/>
                    <path d="M6.1,5.3L7,5.3L7,9.7L6.1,9.7L6.1,5.3Z" style="fill:#332d2b;fill-rule:nonzero;"/>
                    <path d="M14,5.3L18.8,5.3L18.8,6.1L16.8,6.1L16.8,9.8L16,9.8L16,6.1L14,6.1L14,5.3Z" style="fill:#332d2b;fill-rule:nonzero;"/>
                    <path d="M19.7,5.3L24,5.3L24,6.1L20.5,6.1L20.5,7.1L23.2,7.1L23.2,7.9L20.5,7.9L20.5,9L24,9L24,9.8L19.7,9.8L19.7,5.3Z" style="fill:#332d2b;fill-rule:nonzero;"/>
                    <path d="M34.6,9L32,9L32,6.1L34.5,6.1C35.3,6.1 35.6,6.9 35.6,7.5C35.6,8.2 35.3,9 34.6,9M35.9,6C35.6,5.6 35.1,5.3 34.5,5.4L31.2,5.4L31.2,9.8L34.5,9.8C35,9.8 35.5,9.6 35.9,9.2C36.2,8.7 36.4,8.2 36.4,7.6C36.4,7 36.2,6.4 35.9,6" style="fill:#332d2b;fill-rule:nonzero;"/>
                    <path d="M41.9,8.8C41.9,8.9 41.8,9 41.7,9L38.2,9C38.1,9 38,8.9 38,8.8L38,6.3C38,6.2 38.1,6.1 38.2,6.1L41.7,6.1C41.8,6.1 41.9,6.2 41.9,6.3L41.9,8.8ZM41.7,5.3L38.1,5.3C37.6,5.3 37.2,5.7 37.2,6.2L37.2,8.7C37.2,9.2 37.6,9.6 38.1,9.6L41.7,9.6C42.2,9.6 42.6,9.2 42.6,8.7L42.6,6.3C42.6,5.8 42.2,5.3 41.7,5.3" style="fill:#332d2b;fill-rule:nonzero;"/>
                    <path d="M68.3,12.9C69.6,13.3 71,13.5 72.3,13.5C73.8,13.5 74.5,13 74.5,12.3C74.5,11.7 73.9,11.4 72.2,10.7C69.9,9.9 68.3,9.2 68.3,7.7C68.3,6.2 70.3,5.3 73.3,5.3C74.4,5.3 75.5,5.4 76.5,5.6L76.5,7.1C75.4,6.8 74.3,6.6 73.2,6.6C71.7,6.6 71.1,7.1 71.1,7.6C71.1,8.3 72.1,8.7 73.8,9.3C76.2,10.2 77.5,10.8 77.5,12.3C77.5,13.8 75.8,14.9 72,14.9C70.7,14.9 69.4,14.8 68.2,14.6L68.3,12.9Z" style="fill:#332d2b;fill-rule:nonzero;"/>
                    <path d="M60.2,6.6L58.4,6.6L58.4,13.4L60.2,13.4C63,13.4 64.7,12.2 64.7,10C64.7,7.8 63,6.6 60.2,6.6M65.1,14C63.8,14.5 62.4,14.7 61.1,14.7L55.5,14.7L55.5,5.3L61,5.3C62.4,5.3 63.7,5.5 65,6C66.7,6.6 67.9,8.2 67.9,10C67.9,11.8 66.8,13.4 65.1,14" style="fill:#332d2b;fill-rule:nonzero;"/>
                    <path d="M51.4,9.6C51.4,9.6 54,9.2 54,7.5C54,5.9 51.2,5.3 48.2,5.3C46.7,5.3 45.2,5.4 43.8,5.6L43.8,7C45.1,6.6 46.4,6.5 47.8,6.5C49.5,6.5 50.8,7 50.8,7.7C50.8,8.6 49.5,9.1 46.7,9.1L45.4,9.1L45.4,10.4L46.6,10.4C49.5,10.4 51.2,10.8 51.2,11.9C51.2,12.9 49.7,13.4 47.9,13.4C46.5,13.4 45,13.1 43.6,12.7L43.6,14.3C45.2,14.6 46.9,14.7 48.5,14.7C51.6,14.7 54.4,13.7 54.4,11.9C54.5,10.4 52.6,9.6 51.4,9.6" style="fill:#d12228;fill-rule:nonzero;"/>
                </g>
            </g>
        </g>
    </g>
</svg>
