<?xml version="1.0" encoding="UTF-8" standalone="no"?>
<!DOCTYPE svg PUBLIC "-//W3C//DTD SVG 1.1//EN" "http://www.w3.org/Graphics/SVG/1.1/DTD/svg11.dtd">
<svg width="112px" height="30px" version="1.1" xmlns="http://www.w3.org/2000/svg" xmlns:xlink="http://www.w3.org/1999/xlink" xml:space="preserve" xmlns:serif="http://www.serif.com/" style="fill-rule:evenodd;clip-rule:evenodd;stroke-linejoin:round;stroke-miterlimit:2;">
    <g id="Switch">
        <g transform="matrix(2.73171,0,0,1.76471,-24.5854,-8.82353)">
            <path d="M50,13.5C50,8.809 47.54,5 44.509,5L14.491,5C11.46,5 9,8.809 9,13.5C9,18.191 11.46,22 14.491,22L44.509,22C47.54,22 50,18.191 50,13.5Z" style="fill:#fff;"/>
            <path d="M50,13.5C50,8.809 47.54,5 44.509,5L14.491,5C11.46,5 9,8.809 9,13.5C9,18.191 11.46,22 14.491,22L44.509,22C47.54,22 50,18.191 50,13.5ZM49.634,13.5C49.634,17.879 47.337,21.433 44.509,21.433L14.491,21.433C11.663,21.433 9.366,17.879 9.366,13.5C9.366,9.121 11.663,5.567 14.491,5.567L44.509,5.567C47.337,5.567 49.634,9.121 49.634,13.5Z" style="fill:#e60012;"/>
        </g>
        <g id="logo-nintendo-switch.svg" transform="matrix(1.31313,0,0,1.31313,56,15)">
            <g transform="matrix(1,0,0,1,-29.7,-10)">
                <circle cx="3.2" cy="7.4" r="1.2" style="fill:#e60012;"/>
                <path d="M9.7,3.5L7.7,3.5C7.7,3.5 7.6,3.5 7.6,3.6L7.6,16.4C7.6,16.5 7.6,16.5 7.7,16.5L9.7,16.5C11.5,16.5 13,15 13,13.2L13,6.8C13,5 11.5,3.5 9.7,3.5ZM10.1,12C9.4,12 8.8,11.4 8.8,10.7C8.8,10 9.4,9.4 10.1,9.4C10.8,9.4 11.4,10 11.4,10.7C11.5,11.4 10.9,12 10.1,12Z" style="fill:#e60012;fill-rule:nonzero;"/>
                <path d="M6.2,3.5L3.3,3.5C1.5,3.5 0,5 0,6.8L0,13.1C0,14.9 1.5,16.4 3.3,16.4L6.1,16.4C6.2,16.4 6.2,16.4 6.2,16.3L6.2,3.5C6.3,3.5 6.2,3.5 6.2,3.5ZM5.2,15.5L3.3,15.5C2,15.5 1,14.5 1,13.2L1,6.8C1,5.5 2,4.5 3.3,4.5L5.2,4.5L5.2,15.5Z" style="fill:#e60012;fill-rule:nonzero;"/>
                <path d="M26.6,5L28.4,7.4L29.2,7.4L29.2,3.8L28.4,3.8L28.4,6.2L26.6,3.8L25.9,3.8L25.9,7.4L26.6,7.4L26.6,5Z" style="fill:#e60012;fill-rule:nonzero;"/>
                <path d="M19.2,12C18.2,11.8 17.6,11.6 17.6,11.2C17.6,10.7 18.3,10.5 19.3,10.5C20,10.5 20.7,10.7 21.4,11L21.9,9.8C21.1,9.5 20.1,9.3 19.2,9.3C17.7,9.3 16.1,10 16.1,11.4C16.1,12.5 16.9,13 18.8,13.4C20.2,13.6 21,13.8 20.9,14.4C20.9,14.7 20.6,15.3 19.1,15.3C18.2,15.3 17.4,15.1 16.6,14.7L16,15.6C16.9,16.1 18,16.3 19,16.3C21.2,16.3 22.3,15.5 22.3,14.1C22.4,13.3 22.1,12.5 19.2,12Z" style="fill:#e60012;fill-rule:nonzero;"/>
                <path d="M17.1,5L18.9,7.4L19.6,7.4L19.6,3.8L18.8,3.8L18.8,6.2L17.1,3.8L16.3,3.8L16.3,7.4L17.1,7.4L17.1,5Z" style="fill:#e60012;fill-rule:nonzero;"/>
                <path d="M30.1,14.3L28.7,9.3L27.4,9.3L26,14.3L24.7,9.3L23.2,9.3L25.1,16.2L26.8,16.2L28,11.6L29.3,16.2L31,16.2L32.9,9.3L31.4,9.3L30.1,14.3Z" style="fill:#e60012;fill-rule:nonzero;"/>
                <rect x="22.3" y="3.8" width="0.8" height="3.6" style="fill:#e60012;"/>
                <rect x="34.6" y="9.3" width="1.5" height="6.9" style="fill:#e60012;"/>
                <path d="M57.5,3.7C56.4,3.7 55.6,4.6 55.6,5.6C55.6,6.7 56.5,7.5 57.5,7.5C58.6,7.5 59.4,6.6 59.4,5.6C59.4,4.5 58.5,3.7 57.5,3.7ZM57.5,6.7C56.9,6.7 56.4,6.2 56.4,5.5C56.4,4.9 56.9,4.4 57.5,4.4C58.1,4.4 58.6,4.9 58.6,5.5C58.6,6.2 58.1,6.7 57.5,6.7Z" style="fill:#e60012;fill-rule:nonzero;"/>
                <path d="M57.7,12L54.5,12L54.5,9.3L53.1,9.3L53.1,16.2L54.5,16.2L54.5,13.4L57.7,13.4L57.7,16.2L59.1,16.2L59.1,9.3L57.7,9.3L57.7,12Z" style="fill:#e60012;fill-rule:nonzero;"/>
                <path d="M51.3,3.8L49.8,3.8L49.8,7.4L51.3,7.4C52.3,7.4 53.2,6.6 53.2,5.6C53.1,4.6 52.3,3.8 51.3,3.8ZM51.3,6.7L50.5,6.7L50.5,4.5L51.3,4.5C51.9,4.5 52.4,5 52.4,5.6C52.4,6.2 51.9,6.7 51.3,6.7Z" style="fill:#e60012;fill-rule:nonzero;"/>
                <path d="M48.5,10.6C49.3,10.6 50,11 50.4,11.7L51.5,10.7C50.4,9 48.1,8.6 46.4,9.7C44.7,10.8 44.3,13.1 45.4,14.8C46.5,16.5 48.8,16.9 50.5,15.8C50.9,15.5 51.2,15.2 51.5,14.8L50.4,13.8C50,14.5 49.3,14.9 48.5,14.9C47.3,14.9 46.3,14 46.3,12.8C46.3,11.6 47.2,10.6 48.4,10.6L48.5,10.6Z" style="fill:#e60012;fill-rule:nonzero;"/>
                <path d="M40.4,6.8L38.3,6.8L38.3,5.9L40.2,5.9L40.2,5.2L38.3,5.2L38.3,4.4L40.4,4.4L40.4,3.8L37.5,3.8L37.5,7.4L40.4,7.4L40.4,6.8Z" style="fill:#e60012;fill-rule:nonzero;"/>
                <path d="M37.9,10.8L40.1,10.8L40.1,16.2L41.5,16.2L41.5,10.8L43.7,10.8L43.7,9.3L37.9,9.3L37.9,10.8Z" style="fill:#e60012;fill-rule:nonzero;"/>
                <path d="M34.9,3.8L31.8,3.8L31.8,4.5L32.9,4.5L32.9,7.4L33.7,7.4L33.7,4.5L34.9,4.5L34.9,3.8Z" style="fill:#e60012;fill-rule:nonzero;"/>
                <path d="M46.7,7.4L46.7,3.8L45.9,3.8L45.9,6.2L44.1,3.8L43.4,3.8L43.4,7.4L44.1,7.4L44.1,5L45.9,7.4L46.7,7.4Z" style="fill:#e60012;fill-rule:nonzero;"/>
            </g>
        </g>
    </g>
</svg>
