<?xml version="1.0" encoding="UTF-8" standalone="no"?>
<!DOCTYPE svg PUBLIC "-//W3C//DTD SVG 1.1//EN" "http://www.w3.org/Graphics/SVG/1.1/DTD/svg11.dtd">
<svg width="112px" height="30px" version="1.1" xmlns="http://www.w3.org/2000/svg" xmlns:xlink="http://www.w3.org/1999/xlink" xml:space="preserve" xmlns:serif="http://www.serif.com/" style="fill-rule:evenodd;clip-rule:evenodd;stroke-linejoin:round;stroke-miterlimit:2;">
    <g id="PS3">
        <g transform="matrix(2.73171,0,0,1.76471,-24.5854,-8.82353)">
            <path d="M50,13.5C50,8.809 47.54,5 44.509,5L14.491,5C11.46,5 9,8.809 9,13.5C9,18.191 11.46,22 14.491,22L44.509,22C47.54,22 50,18.191 50,13.5Z" style="fill:url(#_Linear1);"/>
        </g>
        <g id="logo-ps3.svg" transform="matrix(1,0,0,1,56,15)">
            <g transform="matrix(1,0,0,1,-30.45,-10)">
                <clipPath id="_clip2">
                    <rect x="0" y="0" width="60.9" height="20"/>
                </clipPath>
                <g clip-path="url(#_clip2)">
                    <path d="M39,3.5L31,3.5C29.2,3.3 27.5,4.6 27.3,6.4L27.3,13C27.3,14.2 26.7,15.1 25.5,15.1L18.5,15.1C18.5,15.1 18.4,15.1 18.4,15.2L18.4,16.4C18.4,16.4 18.4,16.5 18.5,16.5L26.4,16.5C28.2,16.7 29.9,15.4 30.1,13.6L30.1,7C30.1,5.8 30.7,4.9 31.9,4.9L39,4.9C39.1,4.9 39.1,4.9 39.1,4.8L39,3.5C39.1,3.5 39,3.5 39,3.5Z" style="fill:#fff;fill-rule:nonzero;"/>
                    <path d="M15.5,3.5L0.1,3.5C0,3.5 0,3.5 0,3.6L0,4.8C0,4.9 0,4.9 0.1,4.9L14.5,4.9C15.7,4.9 16.3,5.8 16.3,7C16.3,8.2 15.7,9.1 14.5,9.1L3.1,9.1C1.3,9.2 -0.1,10.7 0,12.4L0,16.3C0,16.4 0,16.4 0.1,16.4L2.7,16.4C2.8,16.4 2.8,16.4 2.8,16.3L2.8,12.5C2.8,11.3 3.5,10.4 4.5,10.4L15.5,10.4C17.3,10.6 18.9,9.3 19.2,7.5L19.2,6.9C19.3,5.1 17.9,3.5 16.1,3.4C15.8,3.5 15.7,3.5 15.5,3.5Z" style="fill:#fff;fill-rule:nonzero;"/>
                    <path d="M59.7,9.8L59.7,9.7C60.5,9 60.9,8 60.9,7C61,5.2 59.6,3.6 57.8,3.5L41.9,3.5C41.8,3.5 41.8,3.5 41.8,3.6L41.8,4.8C41.8,4.8 41.8,4.9 41.9,4.9L56.3,4.9C57.5,4.9 58.1,5.8 58.1,7C58.1,8.2 57.5,9.1 56.3,9.1L41.9,9.1C41.9,9.1 41.8,9.1 41.8,9.2L41.8,10.4C41.8,10.4 41.8,10.5 41.9,10.5L56.3,10.5C57.9,10.5 58.1,12.1 58.1,12.9L58.1,13C58.1,14.2 57.5,15.1 56.3,15.1L41.9,15.1C41.9,15.1 41.8,15.1 41.8,15.2L41.8,16.4C41.8,16.4 41.8,16.5 41.9,16.5L57.3,16.5C59.2,16.7 60.8,15.3 61,13.4L61,12.9C60.9,11.7 60.5,10.6 59.7,9.8Z" style="fill:#fff;fill-rule:nonzero;"/>
                </g>
            </g>
        </g>
    </g>
    <defs>
        <linearGradient id="_Linear1" x1="0" y1="0" x2="1" y2="0" gradientUnits="userSpaceOnUse" gradientTransform="matrix(41,0,0,63.4667,9,13.5)"><stop offset="0" style="stop-color:#0e0e0e;stop-opacity:1"/><stop offset="1" style="stop-color:#828282;stop-opacity:1"/></linearGradient>
    </defs>
</svg>
