<?xml version="1.0" encoding="UTF-8" standalone="no"?>
<!DOCTYPE svg PUBLIC "-//W3C//DTD SVG 1.1//EN" "http://www.w3.org/Graphics/SVG/1.1/DTD/svg11.dtd">
<svg width="112px" height="30px" version="1.1" xmlns="http://www.w3.org/2000/svg" xmlns:xlink="http://www.w3.org/1999/xlink" xml:space="preserve" xmlns:serif="http://www.serif.com/" style="fill-rule:evenodd;clip-rule:evenodd;stroke-linejoin:round;stroke-miterlimit:2;">
    <g id="PS4">
        <g transform="matrix(2.73171,0,0,1.76471,-24.5854,-8.82353)">
            <path d="M50,13.5C50,8.809 47.54,5 44.509,5L14.491,5C11.46,5 9,8.809 9,13.5C9,18.191 11.46,22 14.491,22L44.509,22C47.54,22 50,18.191 50,13.5Z" style="fill:url(#_Linear1);"/>
        </g>
        <g id="logo-ps4.svg" transform="matrix(1,0,0,1,56,15)">
            <g transform="matrix(1,0,0,1,-30.4,-10)">
                <clipPath id="_clip2">
                    <rect x="0" y="0" width="60.8" height="20"/>
                </clipPath>
                <g clip-path="url(#_clip2)">
                    <path d="M31.2,13.3L31.2,7C31.2,5.8 31.8,4.9 33,4.9L40.6,4.9C40.6,4.9 40.7,4.9 40.7,4.8L40.7,3.5L31.4,3.5C29.6,3.6 28.3,5.2 28.4,6.9L28.4,12.9C28.4,14.1 27.8,15 26.6,15L18.6,15C18.6,15 18.5,15 18.5,15.1L18.5,16.3C18.5,16.3 18.5,16.4 18.6,16.4L27.7,16.4C29.5,16.5 31.1,15.1 31.2,13.3Z" style="fill:#fff;fill-rule:nonzero;"/>
                    <path d="M0.1,16.5L2.8,16.5L2.9,16.4L2.9,12.5C2.9,11.3 3.6,10.4 4.6,10.4L15.6,10.4C17.4,10.6 19.1,9.3 19.3,7.5L19.3,6.9C19.4,5.1 18.1,3.6 16.3,3.5L0,3.5L0,4.7C0,4.7 0,4.8 0.1,4.8L14.5,4.8C15.7,4.8 16.3,5.7 16.3,6.9C16.3,8.1 15.7,9 14.5,9L3.1,9C1.3,9.1 -0.1,10.6 0,12.4L0,16.4C0,16.4 0,16.5 0.1,16.5Z" style="fill:#fff;fill-rule:nonzero;"/>
                    <path d="M42.9,13.7L55.1,13.7C55.1,13.7 55.2,13.7 55.2,13.6L55.2,6.1C55.2,6 55.2,6 55.1,5.9L55,5.9L42.9,13.4C42.8,13.4 42.8,13.5 42.8,13.6C42.8,13.7 42.8,13.7 42.9,13.7Z" style="fill:none;fill-rule:nonzero;"/>
                    <path d="M40.6,15.1L55.1,15.1C55.1,15.1 55.2,15.1 55.2,15.2L55.2,16.4C55.2,16.4 55.2,16.5 55.3,16.5L57.9,16.5C57.9,16.5 58,16.5 58,16.4L58,15.2C58,15.2 58,15.1 58.1,15.1L60.7,15.1C60.7,15.1 60.8,15.1 60.8,15L60.8,13.8C60.8,13.8 60.8,13.7 60.7,13.7L58.1,13.7C58.1,13.7 58,13.7 58,13.6L58,4.8C58,4.1 57.7,3.6 57.3,3.5L56.5,3.5C56.2,3.6 56,3.7 55.7,3.8L40,13.5C39.4,13.9 39.2,14.3 39.3,14.6C39.6,14.9 39.9,15.1 40.6,15.1ZM42.9,13.5L55,6C55.1,5.9 55.1,6 55.2,6L55.2,13.6C55.2,13.6 55.2,13.7 55.1,13.7L42.9,13.7C42.8,13.7 42.7,13.7 42.7,13.6C42.8,13.6 42.8,13.5 42.9,13.5Z" style="fill:#fff;fill-rule:nonzero;"/>
                </g>
            </g>
        </g>
    </g>
    <defs>
        <linearGradient id="_Linear1" x1="0" y1="0" x2="1" y2="0" gradientUnits="userSpaceOnUse" gradientTransform="matrix(41,0,0,63.4667,9,13.5)"><stop offset="0" style="stop-color:#0f55a5;stop-opacity:1"/><stop offset="1" style="stop-color:#1890cf;stop-opacity:1"/></linearGradient>
    </defs>
</svg>
