<?xml version="1.0" encoding="UTF-8" standalone="no"?>
<!DOCTYPE svg PUBLIC "-//W3C//DTD SVG 1.1//EN" "http://www.w3.org/Graphics/SVG/1.1/DTD/svg11.dtd">
<svg width="112px" height="30px" version="1.1" xmlns="http://www.w3.org/2000/svg" xmlns:xlink="http://www.w3.org/1999/xlink" xml:space="preserve" xmlns:serif="http://www.serif.com/" style="fill-rule:evenodd;clip-rule:evenodd;stroke-linejoin:round;stroke-miterlimit:2;">
    <g id="PS5">
        <g transform="matrix(2.73171,0,0,1.76471,-24.5854,-8.82353)">
            <path d="M50,13.5C50,8.809 47.54,5 44.509,5L14.491,5C11.46,5 9,8.809 9,13.5C9,18.191 11.46,22 14.491,22L44.509,22C47.54,22 50,18.191 50,13.5Z" style="fill:#fff;"/>
            <path d="M50,13.5C50,8.809 47.54,5 44.509,5L14.491,5C11.46,5 9,8.809 9,13.5C9,18.191 11.46,22 14.491,22L44.509,22C47.54,22 50,18.191 50,13.5ZM49.634,13.5C49.634,17.879 47.337,21.433 44.509,21.433L14.491,21.433C11.663,21.433 9.366,17.879 9.366,13.5C9.366,9.121 11.663,5.567 14.491,5.567L44.509,5.567C47.337,5.567 49.634,9.121 49.634,13.5Z"/>
        </g>
        <g id="logo-ps5.svg" transform="matrix(0.645161,0,0,0.645161,56,15)">
            <g transform="matrix(1,0,0,1,-46.5,-10)">
                <g transform="matrix(0.154464,0,0,0.154464,-53.8383,-6.61183)">
                    <g id="ps5_logo">
                        <path id="ps5" d="M945,42.94L761,42.94L761,92.82C761,92.82 760.44,112.08 784.26,112.08L896.73,112.08C901.142,112.044 905.513,112.933 909.56,114.69C915.84,117.49 922.9,123.19 922.9,134.69C922.9,145.01 917.9,150.87 912.95,154.15C908.852,156.797 904.068,158.188 899.19,158.15L761,158.15L761,172.15L915.09,172.15C915.09,172.15 950.09,170.73 950.09,134.76C950.09,116.47 939.41,107.41 929.8,102.97C923.591,100.118 916.833,98.654 910,98.68L798.53,98.68C796.673,98.704 794.838,98.268 793.19,97.41C790.81,96.12 788.19,93.56 788.19,88.52L788.19,56.75L945,56.75L945,42.94ZM529.41,158.1L529.41,172.1L607.51,172.1C616.842,172.199 625.903,168.919 633.01,162.87C640.431,156.571 644.618,147.241 644.39,137.51L644.39,78C644.309,71.411 647.261,65.137 652.39,61C655.984,58.186 660.436,56.686 665,56.75L733.09,56.75L733.09,42.94L652,42.94C652,42.94 617,43.5 617,80.52L617,136.09C617.062,140.641 615.834,145.117 613.46,149C609.967,154.84 603.562,158.341 596.76,158.13L529.41,158.1ZM349.09,42.94L349.09,56.75L488.29,56.75C492.162,56.717 495.993,57.54 499.51,59.16C505.03,61.75 511.23,67.08 511.23,77.89C511.23,88.39 505.03,93.64 499.51,96.24C495.935,97.881 492.043,98.714 488.11,98.68L384.87,98.68C378.759,98.623 372.719,99.993 367.23,102.68C358.64,106.99 349.09,117.14 349.09,133.88L349.09,171.88L375.88,171.88L375.88,134.05C375.862,131.589 376.307,129.147 377.19,126.85C379.4,121.18 384.99,112.08 398.06,112.08L502.16,112.08C505.661,112.099 509.148,111.631 512.52,110.69C522.08,107.97 538.02,100.11 538.02,77.89C538.02,43.36 503.65,42.94 503.65,42.94L349.09,42.94Z" style="fill-rule:nonzero;"/>
                    </g>
                </g>
            </g>
        </g>
    </g>
</svg>
