<?xml version="1.0" encoding="UTF-8" standalone="no"?>
<!DOCTYPE svg PUBLIC "-//W3C//DTD SVG 1.1//EN" "http://www.w3.org/Graphics/SVG/1.1/DTD/svg11.dtd">
<svg width="112px" height="30px" version="1.1" xmlns="http://www.w3.org/2000/svg" xmlns:xlink="http://www.w3.org/1999/xlink" xml:space="preserve" xmlns:serif="http://www.serif.com/" style="fill-rule:evenodd;clip-rule:evenodd;stroke-linejoin:round;stroke-miterlimit:2;">
    <g id="Xbox-One" serif:id="Xbox One">
        <g transform="matrix(2.73171,0,0,1.76471,-24.5854,-8.82353)">
            <path d="M50,13.5C50,8.809 47.54,5 44.509,5L14.491,5C11.46,5 9,8.809 9,13.5C9,18.191 11.46,22 14.491,22L44.509,22C47.54,22 50,18.191 50,13.5Z" style="fill:#177d3e;"/>
        </g>
        <g id="logo-xbox-one.svg" transform="matrix(1,0,0,1,56,15)">
            <g transform="matrix(1,0,0,1,-33.7,-10)">
                <path d="M58.7,15.3L58.7,4.7L57.5,4.7L57.5,13.4L51.2,4.7L50.1,4.7L50.1,15.3L51.3,15.3L51.3,6.8L57.5,15.3L58.7,15.3Z" style="fill:#fff;fill-rule:nonzero;"/>
                <path d="M44,4.5C41,4.5 39,6.8 39,10C39,13.2 41.1,15.5 44,15.5C47,15.5 49,13.2 49,10C49,6.8 47,4.5 44,4.5M44,14.4C41.7,14.4 40.2,12.6 40.2,10C40.2,7.4 41.8,5.6 44,5.6C46.3,5.6 47.8,7.4 47.8,10C47.8,12.6 46.3,14.4 44,14.4" style="fill:#fff;fill-rule:nonzero;"/>
                <path d="M60,4.7L60,15.3L67.4,15.3L67.4,14.2L61.2,14.2L61.2,10.3L66.9,10.3L66.9,9.3L61.2,9.3L61.2,5.8L67.3,5.8L67.3,4.7L60,4.7Z" style="fill:#fff;fill-rule:nonzero;"/>
                <path d="M35.3,4.7L36.7,4.7L33,9.8L37.1,15.3L35.7,15.3L32.3,10.7L29,15.3L27.6,15.3L31.6,9.8L28,4.7L29.3,4.7L32.3,8.8L35.3,4.7Z" style="fill:#fff;fill-rule:nonzero;"/>
                <path d="M23.7,4.5C20.7,4.5 18.7,6.8 18.7,10C18.7,13.2 20.8,15.5 23.7,15.5C26.7,15.5 28.7,13.2 28.7,10C28.7,6.8 26.6,4.5 23.7,4.5M23.7,14.4C21.4,14.4 19.9,12.6 19.9,10C19.9,7.4 21.5,5.6 23.7,5.6C25.9,5.6 27.5,7.4 27.5,10C27.5,12.6 25.9,14.4 23.7,14.4" style="fill:#fff;fill-rule:nonzero;"/>
                <path d="M0,15.3L1.4,15.3L4.7,10.7L8.1,15.3L9.5,15.3L5.4,9.8L9.1,4.7L7.8,4.7L4.7,8.8L1.7,4.7L0.4,4.7L4,9.8L0,15.3Z" style="fill:#fff;fill-rule:nonzero;"/>
                <path d="M17.2,10.2C17,10 16.7,9.8 16.5,9.7C17.3,9.3 17.8,8.5 17.8,7.6C17.8,6.9 17.6,4.7 14.4,4.7L10.1,4.7L10.1,9.2L8.6,9.2C8.5,9.5 8,10.1 7.9,10.3L10.1,10.3L10.1,15.2L14.4,15.2C16.7,15.2 18.2,14 18.2,12.1C18.1,11.4 17.8,10.7 17.2,10.2M11.2,5.8L14.3,5.8C15.1,5.8 16.5,6 16.5,7.5C16.5,8.6 15.7,9.3 14.3,9.3L11.2,9.3L11.2,5.8ZM14.3,14.2L11.2,14.2L11.2,10.4L14.3,10.4C15.5,10.4 16.9,10.7 16.9,12.2C16.9,13.9 15.3,14.2 14.3,14.2" style="fill:#fff;fill-rule:nonzero;"/>
            </g>
        </g>
    </g>
</svg>
