<?xml version="1.0" encoding="UTF-8" standalone="no"?>
<!DOCTYPE svg PUBLIC "-//W3C//DTD SVG 1.1//EN" "http://www.w3.org/Graphics/SVG/1.1/DTD/svg11.dtd">
<svg width="112px" height="30px" version="1.1" xmlns="http://www.w3.org/2000/svg" xmlns:xlink="http://www.w3.org/1999/xlink" xml:space="preserve" xmlns:serif="http://www.serif.com/" style="fill-rule:evenodd;clip-rule:evenodd;stroke-linejoin:round;stroke-miterlimit:2;">
    <g id="Xbox-360" serif:id="Xbox 360">
        <g transform="matrix(2.73171,0,0,1.76471,-24.5854,-8.82353)">
            <path d="M50,13.5C50,8.809 47.54,5 44.509,5L14.491,5C11.46,5 9,8.809 9,13.5C9,18.191 11.46,22 14.491,22L44.509,22C47.54,22 50,18.191 50,13.5Z" style="fill:#fff;"/>
            <path d="M50,13.5C50,8.809 47.54,5 44.509,5L14.491,5C11.46,5 9,8.809 9,13.5C9,18.191 11.46,22 14.491,22L44.509,22C47.54,22 50,18.191 50,13.5ZM49.634,13.5C49.634,17.879 47.337,21.433 44.509,21.433L14.491,21.433C11.663,21.433 9.366,17.879 9.366,13.5C9.366,9.121 11.663,5.567 14.491,5.567L44.509,5.567C47.337,5.567 49.634,9.121 49.634,13.5Z" style="fill:#99cb33;"/>
        </g>
        <g id="logo-xbox360.svg" transform="matrix(1,0,0,1,56,15)">
            <g transform="matrix(1,0,0,1,-32.25,-10)">
                <path d="M42.1,10.3L42.1,9.3L43.3,9.3C44,9.4 44.7,9.2 45.2,8.8C45.6,8.5 45.8,8 45.8,7.5C45.8,7 45.6,6.5 45.2,6.1C44.7,5.8 44.2,5.6 43.6,5.6C42.5,5.6 41.5,6.3 41.1,7.3L39.9,7.3C40.4,5.6 41.9,4.5 43.7,4.5C44.6,4.5 45.5,4.8 46.2,5.3C46.8,5.8 47.2,6.5 47.2,7.3C47.2,7.9 47,8.4 46.6,8.9C46.2,9.3 45.7,9.6 45.1,9.7C45.8,9.8 46.4,10.1 46.8,10.5C47.3,11 47.5,11.6 47.5,12.3C47.5,13.2 47.1,14 46.4,14.5C44.8,15.6 42.6,15.7 40.9,14.7C40,13.9 39.5,12.8 39.4,11.6L40.6,11.6C40.6,13.1 41.9,14.3 43.4,14.3C44.1,14.4 44.9,14.2 45.4,13.7C45.8,13.3 46,12.8 46,12.2C46,11.6 45.7,11.1 45.3,10.7C44.7,10.3 43.9,10.1 43.2,10.1L42.1,10.3ZM55.5,7.2L54.3,7.2C54,6.2 53.1,5.6 52.1,5.6C50.1,5.6 49.1,6.9 49.1,10.2C49.4,9.6 49.8,9 50.4,8.7C51,8.4 51.6,8.2 52.2,8.2C53.1,8.2 54,8.6 54.7,9.2C55.4,10 55.7,10.9 55.7,11.9C55.7,12.9 55.3,13.8 54.6,14.5C53,16 50.6,15.9 49.1,14.4C49,14.3 49,14.3 48.9,14.2C48.1,13.1 47.7,11.7 47.8,10.4C47.8,9 48.1,7.6 48.8,6.3C49.5,5.2 50.7,4.5 52.1,4.6C53.7,4.5 55.2,5.6 55.5,7.2ZM51.9,14.4C53.3,14.4 54.4,13.4 54.5,12L54.5,11.9C54.5,11.2 54.3,10.4 53.8,9.9C53.4,9.4 52.7,9.2 52.1,9.2C51.4,9.2 50.7,9.5 50.2,10C49.7,10.6 49.4,11.3 49.4,12.1C49.4,12.7 49.7,13.3 50.1,13.8C50.5,14.2 51.2,14.5 51.9,14.4ZM60.4,15.5C59.2,15.5 58.1,14.9 57.4,13.9C56.6,12.7 56.3,11.4 56.3,10C56.3,8.6 56.6,7.3 57.3,6.1C58.5,4.4 60.7,4 62.4,5.2C62.8,5.5 63.1,5.8 63.4,6.2C64.1,7.4 64.5,8.7 64.4,10.1C64.4,11.4 64.1,12.8 63.3,13.9C62.8,14.9 61.7,15.5 60.4,15.5ZM60.4,14.5C61.3,14.5 62.1,14.1 62.5,13.3C63,12.4 63.2,11.3 63.1,10.3C63.1,9.2 62.9,8 62.4,7C62,6.2 61.2,5.6 60.3,5.7C59.4,5.7 58.6,6.1 58.3,6.9C57.8,7.9 57.6,9 57.7,10.1C57.6,11.2 57.9,12.4 58.4,13.4C58.7,14 59.6,14.5 60.4,14.5Z" style="fill:#989898;fill-rule:nonzero;"/>
                <path d="M9.1,4.6L5.4,9.9L9.1,15.3L7.4,15.3L4.5,10.9L1.5,15.3L0,15.3L3.7,9.9L0.1,4.6L1.7,4.6L4.6,9L7.5,4.6L9.1,4.6ZM18.4,12C18.4,12.5 18.3,13 18.1,13.4C17.9,13.8 17.6,14.1 17.3,14.4C16.9,14.7 16.5,14.9 16,15.1C15.3,15.2 14.6,15.3 13.9,15.3L10.1,15.3L10.1,10.1L7.9,10.1L8.6,8.9L10,8.9L10,4.6L13.2,4.6C13.9,4.6 14.5,4.6 15.2,4.7C15.6,4.8 16.1,4.9 16.4,5.1C16.8,5.3 17.1,5.6 17.3,5.9C17.5,6.3 17.6,6.7 17.6,7.1C17.6,7.6 17.5,8 17.2,8.4C16.9,8.8 16.6,9.1 16.2,9.3L16.2,9.4C16.8,9.5 17.4,9.9 17.8,10.4C18.2,10.7 18.4,11.3 18.4,12ZM16.1,7.2C16.1,7 16.1,6.8 16,6.5C15.9,6.3 15.8,6.2 15.6,6.1C15.2,6 14.8,5.9 14.4,5.9L11.5,5.9L11.5,9L13.3,9C13.7,9 14,9 14.4,8.9C14.7,8.9 15.1,8.8 15.4,8.6C15.6,8.4 15.9,8.2 16,8C16.1,7.7 16.1,7.4 16.1,7.2ZM16.9,12C16.9,11.6 16.8,11.3 16.7,11C16.5,10.7 16.3,10.5 16,10.4C15.7,10.3 15.5,10.2 15.2,10.2C14.9,10.2 14.2,10.1 13.7,10.1L11.5,10.1L11.5,14.1L13.4,14.1C14,14.1 14.6,14.1 15.2,14C15.5,14 15.9,13.8 16.2,13.6C16.4,13.4 16.6,13.2 16.8,13C16.9,12.7 16.9,12.4 16.9,12ZM19.7,9.8C19.7,10.9 20.1,12 20.8,12.8C21.5,13.7 22.5,14.1 23.6,14.1C24.5,14.1 25.3,13.8 26,13.2C27,12.4 27.6,11.2 27.6,9.9C27.6,8.9 27.3,7.8 26.6,7.1C25.1,5.5 22.5,5.4 20.9,6.9L20.8,7C20.1,7.8 19.7,8.8 19.7,9.8ZM18.2,9.8C18.2,8.4 18.8,7 19.9,6C20.9,5 22.2,4.5 23.5,4.5C24.8,4.5 26.1,4.9 27.2,5.7C28.5,6.7 29.2,8.2 29.2,9.9C29.2,11.3 28.7,12.6 27.7,13.6C26.7,14.7 25.3,15.4 23.8,15.4C22.4,15.4 21,14.9 19.9,13.9C18.7,12.9 18.1,11.4 18.2,9.8ZM36.9,4.6L33.2,9.9L36.9,15.3L35.3,15.3L32.4,10.9L29.4,15.3L27.9,15.3L31.6,9.9L28,4.5L29.6,4.5L32.5,8.9L35.4,4.5L36.9,4.5L36.9,4.6Z" style="fill:#99cb33;fill-rule:nonzero;"/>
            </g>
        </g>
    </g>
</svg>
